<svg xmlns="http://www.w3.org/2000/svg" width="39.629" height="52.849" viewBox="0 0 39.629 52.849"><defs><style>.a{fill:#b4f5be;}</style></defs><g transform="translate(-43.283 -373.354)"><path class="a" d="M29.722,26.42H9.907v6.6H29.722Zm9.185-15.583L28.8.722A2.475,2.475,0,0,0,27.049,0h-.63V13.21h13.21v-.63A2.469,2.469,0,0,0,38.907,10.836Zm-15.79,3.2V0H2.477A2.471,2.471,0,0,0,0,2.477V50.362a2.471,2.471,0,0,0,2.477,2.477H37.153a2.471,2.471,0,0,0,2.477-2.477V16.512H25.594A2.484,2.484,0,0,1,23.117,14.035ZM6.6,7.431A.825.825,0,0,1,7.431,6.6h8.256a.825.825,0,0,1,.826.826V9.082a.825.825,0,0,1-.826.826H7.431A.825.825,0,0,1,6.6,9.082Zm0,6.6a.825.825,0,0,1,.826-.826h8.256a.825.825,0,0,1,.826.826v1.651a.825.825,0,0,1-.826.826H7.431a.825.825,0,0,1-.826-.826Zm26.42,31.373a.825.825,0,0,1-.826.826H23.943a.825.825,0,0,1-.826-.826V43.757a.825.825,0,0,1,.826-.826H32.2a.825.825,0,0,1,.826.826Zm0-20.64v9.907a1.651,1.651,0,0,1-1.651,1.651H8.256A1.651,1.651,0,0,1,6.6,34.676V24.768a1.651,1.651,0,0,1,1.651-1.651H31.373A1.651,1.651,0,0,1,33.025,24.768Z" transform="translate(43.283 373.363)"/><rect class="a" width="23" height="8" transform="translate(51.784 399.045)"/><path class="a" d="M2631.032,2685.364a4.236,4.236,0,0,1,3.271,1.2c1.274,1.4,8.708,8.836,8.708,8.836a5.275,5.275,0,0,1,1.231,2.124,3.3,3.3,0,0,1,0,1.317h-13.21Z" transform="translate(-2561.402 -2312)"/></g></svg>