<svg xmlns="http://www.w3.org/2000/svg" width="33.398" height="44.538" viewBox="0 0 33.398 44.538"><defs><style>.a{fill:#87e3ff;}</style></defs><g transform="translate(-43.283 -373.354)"><path class="a" d="M25.048,22.265H8.349v5.566h16.7ZM32.789,9.132,24.274.609A2.086,2.086,0,0,0,22.8,0h-.531V11.133H33.4V10.6A2.081,2.081,0,0,0,32.789,9.132Zm-13.307,2.7V0H2.087A2.082,2.082,0,0,0,0,2.087V42.443A2.082,2.082,0,0,0,2.087,44.53H31.31A2.082,2.082,0,0,0,33.4,42.443V13.916H21.569A2.093,2.093,0,0,1,19.482,11.828ZM5.566,6.262a.7.7,0,0,1,.7-.7H13.22a.7.7,0,0,1,.7.7V7.654a.7.7,0,0,1-.7.7H6.262a.7.7,0,0,1-.7-.7Zm0,5.566a.7.7,0,0,1,.7-.7H13.22a.7.7,0,0,1,.7.7V13.22a.7.7,0,0,1-.7.7H6.262a.7.7,0,0,1-.7-.7Zm22.265,26.44a.7.7,0,0,1-.7.7H20.178a.7.7,0,0,1-.7-.7V36.877a.7.7,0,0,1,.7-.7h6.958a.7.7,0,0,1,.7.7Zm0-17.395v8.349a1.391,1.391,0,0,1-1.392,1.392H6.958a1.391,1.391,0,0,1-1.392-1.392V20.873a1.391,1.391,0,0,1,1.392-1.392H26.44A1.391,1.391,0,0,1,27.831,20.873Z" transform="translate(43.283 373.362)"/><rect class="a" width="19.383" height="6.742" transform="translate(50.447 395.005)"/><path class="a" d="M2631.032,2685.362a3.57,3.57,0,0,1,2.756,1.015c1.074,1.182,7.339,7.447,7.339,7.447a4.445,4.445,0,0,1,1.038,1.79,2.769,2.769,0,0,1,0,1.11h-11.133Z" transform="translate(-2565.545 -2312)"/></g></svg>