<svg xmlns="http://www.w3.org/2000/svg" width="46.645" height="46.645" viewBox="0 0 46.645 46.645"><defs><style>.a{fill:#b3b7ec;}</style></defs><path class="a" d="M47.208,23.885A23.323,23.323,0,1,1,23.885.563,23.322,23.322,0,0,1,47.208,23.885ZM33.886,20.562c.464-3.1-1.9-4.772-5.13-5.885l1.048-4.2-2.559-.638-1.02,4.093c-.673-.168-1.364-.326-2.05-.482L25.2,9.327l-2.558-.638-1.049,4.2c-.557-.127-1.1-.252-1.634-.384l0-.013-3.529-.881-.681,2.733s1.9.435,1.859.462A1.362,1.362,0,0,1,18.805,16.3l-1.194,4.789a2.122,2.122,0,0,1,.266.085l-.27-.067-1.674,6.709a.932.932,0,0,1-1.173.608c.025.037-1.86-.464-1.86-.464L11.63,30.886l3.33.83c.62.155,1.227.318,1.824.471l-1.059,4.252,2.556.638,1.049-4.207q1.017.276,2.04.529l-1.045,4.187,2.559.638,1.059-4.244c4.364.826,7.646.493,9.027-3.454,1.113-3.178-.055-5.011-2.351-6.206a4.081,4.081,0,0,0,3.268-3.757Zm-5.847,8.2c-.791,3.178-6.142,1.46-7.877,1.029l1.405-5.633c1.735.433,7.3,1.29,6.471,4.6Zm.792-8.244c-.722,2.89-5.175,1.422-6.62,1.062l1.274-5.109C24.93,16.829,29.582,17.5,28.831,20.517Z" transform="translate(-0.563 -0.563)"/></svg>