<svg xmlns="http://www.w3.org/2000/svg" width="19" height="19" viewBox="0 0 19 19"><defs><style>.a{opacity:0.25;}.b,.e{fill:none;}.b{stroke:#233972;}.c{fill:#233972;}.d{stroke:none;}</style></defs><g class="a" transform="translate(-297 -757)"><g class="b" transform="translate(297 757)"><circle class="d" cx="9.5" cy="9.5" r="9.5"/><circle class="e" cx="9.5" cy="9.5" r="9"/></g><path class="c" d="M9.236,15.424a1.524,1.524,0,1,0,1.524,1.524A1.523,1.523,0,0,0,9.236,15.424Zm9.142,0A1.524,1.524,0,1,0,19.9,16.948,1.523,1.523,0,0,0,18.377,15.424Zm-4.571,0a1.524,1.524,0,1,0,1.524,1.524,1.523,1.523,0,0,0-1.524-1.524Z" transform="translate(292.288 749.623)"/></g></svg>