<svg xmlns="http://www.w3.org/2000/svg" width="14.875" height="18.619" viewBox="0 0 14.875 18.619"><defs><style>.a{fill:#233972;}</style></defs><g transform="translate(-6.775 -3.93)"><path class="a" d="M18.453,28.336a.6.6,0,0,0-.591.475,1.166,1.166,0,0,1-.233.507.88.88,0,0,1-.749.275.894.894,0,0,1-.749-.275,1.166,1.166,0,0,1-.233-.507.6.6,0,0,0-.591-.475h0a.607.607,0,0,0-.591.74A2.079,2.079,0,0,0,16.88,30.8a2.075,2.075,0,0,0,2.164-1.726.609.609,0,0,0-.591-.74Z" transform="translate(-2.68 -8.253)"/><path class="a" d="M21.464,17.719c-.717-.945-2.127-1.5-2.127-5.729,0-4.342-1.917-6.087-3.7-6.506-.168-.042-.289-.1-.289-.275V5.075A1.141,1.141,0,0,0,14.227,3.93H14.2a1.141,1.141,0,0,0-1.117,1.145V5.21c0,.172-.121.233-.289.275C11,5.908,9.09,7.649,9.09,11.99c0,4.23-1.41,4.779-2.127,5.728A.924.924,0,0,0,7.7,19.2H20.738A.924.924,0,0,0,21.464,17.719Zm-1.815.27H8.8a.2.2,0,0,1-.154-.34,5.638,5.638,0,0,0,.977-1.554,10.546,10.546,0,0,0,.665-4.1,7.137,7.137,0,0,1,.973-4.039,2.986,2.986,0,0,1,1.8-1.284,1.631,1.631,0,0,0,.866-.489.368.368,0,0,1,.554-.009,1.686,1.686,0,0,0,.875.5,2.986,2.986,0,0,1,1.8,1.284,7.137,7.137,0,0,1,.973,4.039,10.546,10.546,0,0,0,.665,4.1,5.7,5.7,0,0,0,1,1.578A.192.192,0,0,1,19.649,17.989Z" transform="translate(0 0)"/></g></svg>