<svg xmlns="http://www.w3.org/2000/svg" width="11.339" height="15.421" viewBox="0 0 11.339 15.421"><defs><style>.a{fill:#fff;}</style></defs><path class="a" d="M9.494,7.308a2.259,2.259,0,0,0,1.243-2.449c-.161-1.727-1.58-2.306-3.459-2.468V0H5.817V2.325c-.38,0-.769.009-1.158.019V0H3.2V2.392c-.537.016-1.163.008-2.933,0V3.948c1.154-.02,1.759-.095,1.9.645v6.549c-.088.587-.558.5-1.6.484L.265,13.363c2.665,0,2.933.009,2.933.009v2.048H4.659V13.4c.4.009.788.009,1.158.009v2.01H7.279V13.373c2.449-.133,4.086-.75,4.3-3.056A2.479,2.479,0,0,0,9.494,7.308ZM4.688,4.053c.826,0,3.407-.256,3.407,1.462,0,1.642-2.582,1.452-3.407,1.452V4.053Zm0,7.583V8.428c.987,0,4.01-.275,4.01,1.6C8.7,11.845,5.675,11.636,4.688,11.636Z" transform="translate(-0.265)"/></svg>