<svg xmlns="http://www.w3.org/2000/svg" width="20.285"
    height="13.499" viewBox="0 0 20.285 13.499">
    <g class="a" opacity="0.25" transform="translate(-223.672 -760.799)">
        <g transform="translate(223.672 760.799)">
            <g transform="translate(0 0)">
                <path class="b" fill="#233972" d="M72.892,110.049H55.387A1.373,1.373,0,0,0,54,111.411v.9H74.285v-.9A1.374,1.374,0,0,0,72.892,110.049Z"
                    transform="translate(-54 -110.049)"/></g></g>
        <g transform="translate(223.672 764.035)">
            <g transform="translate(0 0)"><rect class="b" width="20.279" height="2.007"/>
            </g></g><g transform="translate(223.672 767.091)">
        <g transform="translate(0 0)"><path class="b" d="M54,213.05v5.809a1.4,1.4,0,0,0,1.387,1.4h17.5a1.405,1.405,0,0,0,1.393-1.4V213.05Zm18.685,4.972a2.21,2.21,0,0,1-3.066.592,2.177,2.177,0,0,1-1.234.379,2.208,2.208,0,0,1,0-4.416,2.177,2.177,0,0,1,1.234.379,2.208,2.208,0,0,1,3.066,3.066Z"
            transform="translate(-54 -213.05)"/></g></g></g></svg>