<svg xmlns="http://www.w3.org/2000/svg" width="17.512" height="17.502" viewBox="0 0 17.512 17.502"><defs><style>.a{fill:#67407e;}</style></defs><g transform="translate(479.249 -338.299)"><path class="a" d="M-470.428,338.9c.217,0,.434,0,.651,0a.712.712,0,0,1,.751.723.71.71,0,0,1-.756.69,9.279,9.279,0,0,0-2.583.25,7.264,7.264,0,0,0-5.37,6.3,7.265,7.265,0,0,0,5.937,7.894,7.3,7.3,0,0,0,8.518-6.047,7.112,7.112,0,0,0-.049-2.376.751.751,0,0,1,.587-.92.737.737,0,0,1,.871.677,8.551,8.551,0,0,1-2.5,7.788,8.346,8.346,0,0,1-5.48,2.46,8.73,8.73,0,0,1-9.276-7.28,8.742,8.742,0,0,1,6.008-9.757A8.916,8.916,0,0,1-470.428,338.9Z" transform="translate(0 -0.558)"/><path class="a" d="M-391.588,391.752c0,.459,0,.443.43.573a2.254,2.254,0,0,1,1.741,1.8.762.762,0,0,1-.6.939.743.743,0,0,1-.846-.71.64.64,0,0,0-.4-.533,2.662,2.662,0,0,0-2.1-.007.572.572,0,0,0-.4.527.613.613,0,0,0,.427.541,2.86,2.86,0,0,0,1.146.19,3.261,3.261,0,0,1,1.893.551,1.969,1.969,0,0,1,.8,2.231,2.146,2.146,0,0,1-1.313,1.319,3.029,3.029,0,0,1-.371.118c-.4.109-.4.108-.4.536a2.834,2.834,0,0,1-.012.467.733.733,0,0,1-.769.6.73.73,0,0,1-.678-.725,5.455,5.455,0,0,1,0-.571c.014-.176-.052-.225-.223-.261a2.31,2.31,0,0,1-1.891-1.616,1.045,1.045,0,0,1-.04-.687.728.728,0,0,1,.76-.506.727.727,0,0,1,.655.638.717.717,0,0,0,.512.652,2.734,2.734,0,0,0,1.91,0,.633.633,0,0,0,.485-.526c.013-.273-.212-.441-.443-.558a2.482,2.482,0,0,0-1.114-.211,3.352,3.352,0,0,1-1.742-.448,2.108,2.108,0,0,1-1.044-1.509,1.722,1.722,0,0,1,.377-1.339,2.5,2.5,0,0,1,1.617-.956c.143-.025.186-.07.18-.209-.011-.216-.008-.433,0-.649a.724.724,0,0,1,.743-.711.727.727,0,0,1,.715.714C-391.585,391.526-391.588,391.639-391.588,391.752Z" transform="translate(-78.167 -48.758)"/><path class="a" d="M-309.759,340.906l1.914-1.906c.141-.141.281-.284.423-.424a.744.744,0,0,1,1.106-.057.741.741,0,0,1-.077,1.1q-1.088,1.083-2.178,2.165a.763.763,0,0,1-.13.085l.031.069c.341,0,.682,0,1.023,0a.739.739,0,0,1,.808.726.735.735,0,0,1-.805.729q-1.381,0-2.762,0a.743.743,0,0,1-.81-.807q0-1.378,0-2.756a.734.734,0,0,1,.728-.807.736.736,0,0,1,.731.8C-309.758,340.17-309.759,340.508-309.759,340.906Z" transform="translate(-156.348 0)"/></g></svg>