<svg xmlns="http://www.w3.org/2000/svg" width="17.459"
    height="17.4" viewBox="0 0 17.459 17.4">
<!--    <defs><style>.a,.b{fill:#67407e;}.a{stroke:#67407e;stroke-width:0.2px;}.c{fill:#fff;}</style></defs>-->
    <g transform="translate(0.162 -0.025)">
        <path class="a" fill="#67407e" stroke="#67407e" stroke-width="0.2px" d="M3.927,14.877l-.274-1.939a.5.5,0,0,0-1,.141l.061.434A7.569,7.569,0,0,1,10.14,1.338.5.5,0,1,0,10.351.35a8.579,8.579,0,0,0-8.423,13.8l-.488-.094a.5.5,0,1,0-.19.991l2.04.392a.507.507,0,0,0,.638-.558Z"
            transform="translate(0 0)"/><path class="a" fill="#67407e" stroke="#67407e" stroke-width="0.2px" d="M201.411,59.5a8.6,8.6,0,0,0-1.391-2.455l.488.094a.5.5,0,0,0,.19-.991l-2.04-.392a.506.506,0,0,0-.638.558l.274,1.939a.5.5,0,1,0,1-.141l-.061-.434a7.563,7.563,0,0,1-7.425,12.176.5.5,0,1,0-.211.987,8.568,8.568,0,0,0,9.814-11.34Z"
        transform="translate(-184.765 -53.704)"/>
        <path class="a" fill="#67407e" stroke="#67407e" stroke-width="0.2px" d="M110.322,105.545a5.232,5.232,0,1,0-5.232,5.24A5.242,5.242,0,0,0,110.322,105.545Zm-9.454,0a4.222,4.222,0,1,1,4.222,4.231A4.231,4.231,0,0,1,100.868,105.545Z"
            transform="translate(-96.499 -96.778)"/><circle class="b" fill="#67407e" cx="5.155" cy="5.155" r="5.155"
        transform="translate(3.363 3.251)"/>
        <path class="c" fill="#fff" d="M198.3,161.831v-.343a1.188,1.188,0,1,0,.021-2.375h-.863a.366.366,0,1,1,.006-.732h.827a.553.553,0,0,1,.394.18.411.411,0,0,0,.6-.561,1.378,1.378,0,0,0-.984-.44v-.343a.411.411,0,0,0-.822,0v.343a1.188,1.188,0,1,0-.021,2.375h.863a.366.366,0,0,1,0,.732h-.908a.558.558,0,0,1-.307-.1.411.411,0,0,0-.469.675,1.371,1.371,0,0,0,.841.251v.343a.411.411,0,1,0,.822,0Z"
            transform="translate(-189.299 -150.756)"/></g></svg>