<svg xmlns="http://www.w3.org/2000/svg" width="20.311" height="13.964" viewBox="0 0 20.311 13.964"><defs><style>.a{fill:#67407e;}</style></defs><g transform="translate(0 0)"><g transform="translate(0 0)"><path class="a" d="M19.041,80H1.269A1.272,1.272,0,0,0,0,81.269V92.694a1.271,1.271,0,0,0,1.269,1.269H19.041a1.27,1.27,0,0,0,1.269-1.269V81.269A1.271,1.271,0,0,0,19.041,80ZM6.982,91.425H3.174a.635.635,0,1,1,0-1.269H6.982a.635.635,0,1,1,0,1.269Zm8.251-3.808a2.515,2.515,0,0,1-1.587-.571,2.539,2.539,0,1,1,0-3.935,2.534,2.534,0,1,1,1.587,4.506Z" transform="translate(0 -80)"/></g></g></svg>