<svg xmlns="http://www.w3.org/2000/svg" width="19.842" height="19.844" viewBox="0 0 19.842 19.844"><defs><style>.a{fill:#ffa181;}</style></defs><path class="a" d="M19.117.729A2.452,2.452,0,0,0,16.8.068L3.572,2.854A4.13,4.13,0,0,0,1.213,9.867l1.421,1.42a.827.827,0,0,1,.242.585v2.619a2.452,2.452,0,0,0,.248,1.063l-.007.006.021.021A2.481,2.481,0,0,0,4.265,16.7l.021.021.006-.007a2.452,2.452,0,0,0,1.063.248H7.974a.827.827,0,0,1,.585.241l1.42,1.42a4.1,4.1,0,0,0,2.911,1.218,4.175,4.175,0,0,0,1.327-.218,4.079,4.079,0,0,0,2.765-3.3L19.771,3.072A2.46,2.46,0,0,0,19.117.729ZM3.8,10.119,2.383,8.7a2.431,2.431,0,0,1-.6-2.542A2.462,2.462,0,0,1,3.853,4.482l13.1-2.758L4.527,14.15V11.872A2.462,2.462,0,0,0,3.8,10.119Zm11.552,5.929a2.481,2.481,0,0,1-4.208,1.416L9.726,16.041a2.462,2.462,0,0,0-1.752-.726H5.7L18.121,2.894Z" transform="translate(-0.003 -0.001)"/></svg>